<?xml version="1.0" encoding="iso-8859-1"?>
<!-- Generator: Adobe Illustrator 16.0.0, SVG Export Plug-In . SVG Version: 6.00 Build 0)  -->
<!DOCTYPE svg PUBLIC "-//W3C//DTD SVG 1.1//EN" "http://www.w3.org/Graphics/SVG/1.1/DTD/svg11.dtd">
<svg version="1.1" id="Capa_1" xmlns="http://www.w3.org/2000/svg" xmlns:xlink="http://www.w3.org/1999/xlink" x="0px" y="0px"
	 width="606.88px" height="606.88px" viewBox="0 0 606.88 606.88" style="enable-background:new 0 0 606.88 606.88;"
	 xml:space="preserve">
<g>
	<g>
		<path d="M0.655,388.782c1.304,17.709,4.573,35.281,9.717,52.236c5.087,16.766,12.029,32.992,20.631,48.23
			c8.609,15.248,18.911,29.561,30.619,42.535c11.858,13.139,25.206,24.961,39.674,35.137c10.146,7.135,22.001,10.818,34.286,10.652
			c9.929-0.133,19.716-2.85,28.302-7.855c8.67-5.053,15.948-12.35,21.051-21.102l55.335-94.912
			c6.035-10.352,8.697-22.139,7.698-34.088c-0.983-11.758-5.448-22.82-12.912-31.99c-5.19-6.375-9.895-15.627-12.626-22.24
			c-2.932-10.521-9.077-20-17.538-26.955c-9.505-7.812-21.516-12.109-33.818-12.102l-112.465,0.066
			c-0.234,0-0.495,0.002-0.751,0.006c-15.958,0.215-31.298,7.086-42.085,18.854C4.996,357.015-0.516,372.88,0.655,388.782z
			 M58.435,369.237c0.066,0,0.134,0,0.201,0l112.465-0.068c4.983-0.002,9.193,3.52,10.212,8.332
			c0.149,0.705,0.379,1.385,0.642,2.055c1.896,4.838,8.927,21.664,19.877,35.115c4.05,4.977,4.661,11.914,1.429,17.455
			l-55.335,94.914c-2.868,4.92-7.8,7.629-12.918,7.697c-3.092,0.041-6.253-0.881-9.067-2.859
			C78.006,498.169,47.711,444.495,43.38,385.64C42.733,376.851,49.649,369.356,58.435,369.237z"/>
		<path d="M134.788,578.078c-12.099,0-23.779-3.717-33.779-10.748c-14.497-10.196-27.873-22.043-39.758-35.211
			c-11.73-12.999-22.054-27.34-30.684-42.624c-8.621-15.271-15.577-31.532-20.674-48.331c-5.155-16.99-8.431-34.602-9.737-52.345
			c-1.181-16.039,4.377-32.04,15.248-43.902c10.879-11.868,26.351-18.799,42.447-19.016c0.258-0.004,0.521-0.006,0.758-0.006
			l112.465-0.066c12.441,0,24.552,4.338,34.136,12.215c8.466,6.959,14.752,16.622,17.702,27.208
			c2.695,6.515,7.417,15.775,12.533,22.059c7.528,9.248,12.031,20.404,13.022,32.264c1.008,12.053-1.677,23.941-7.764,34.382
			l-55.335,94.912c-5.147,8.827-12.489,16.187-21.231,21.281c-8.661,5.05-18.532,7.79-28.547,7.924
			C135.322,578.077,135.055,578.078,134.788,578.078z M171.108,326.829l-112.499,0.066c-0.232,0-0.491,0.002-0.744,0.006
			c-15.823,0.213-31.03,7.025-41.724,18.691C5.456,357.252-0.007,372.98,1.153,388.745c1.301,17.671,4.563,35.209,9.697,52.128
			c5.076,16.729,12.003,32.923,20.588,48.13c8.593,15.221,18.874,29.502,30.555,42.446c11.835,13.113,25.155,24.91,39.591,35.062
			c10.047,7.065,21.815,10.752,33.992,10.562c9.843-0.132,19.545-2.824,28.057-7.787c8.594-5.009,15.811-12.243,20.871-20.922
			l55.335-94.912c5.983-10.262,8.622-21.948,7.632-33.794c-0.975-11.658-5.401-22.625-12.802-31.717
			c-5.184-6.367-9.959-15.728-12.701-22.365c-2.915-10.446-9.085-19.93-17.393-26.759
			C195.169,331.087,183.284,326.829,171.108,326.829z M134.811,535.238c-3.244,0-6.411-1.021-9.157-2.951
			c-48.242-33.926-78.412-87.363-82.772-146.61c-0.322-4.377,1.135-8.57,4.104-11.81c2.977-3.248,7.041-5.07,11.443-5.13h0.208
			l112.464-0.068c5.132,0,9.63,3.671,10.702,8.729c0.126,0.595,0.322,1.223,0.618,1.976c1.891,4.823,8.907,21.602,19.8,34.982
			c4.176,5.131,4.768,12.373,1.474,18.022l-55.335,94.914c-2.858,4.901-7.846,7.872-13.344,7.945L134.811,535.238z M58.439,369.737
			c-4.123,0.057-7.929,1.763-10.717,4.806c-2.78,3.033-4.146,6.961-3.844,11.06c4.338,58.948,34.354,112.114,82.35,145.866
			c2.577,1.812,5.544,2.77,8.582,2.77l0.19-0.001c5.144-0.068,9.814-2.854,12.493-7.449l55.335-94.914
			c3.086-5.291,2.529-12.078-1.385-16.888c-10.984-13.493-18.051-30.391-19.955-35.248c-0.316-0.806-0.528-1.483-0.666-2.134
			c-0.974-4.598-5.062-7.936-9.719-7.936L58.439,369.737z"/>
	</g>
	<g>
		<path d="M591.105,345.257c-10.787-11.768-26.127-18.641-42.084-18.855c-0.256-0.002-0.518-0.004-0.752-0.004l-112.466-0.068
			c-12.302-0.008-24.312,4.291-33.818,12.104c-8.46,6.953-14.605,16.432-17.537,26.955c-2.731,6.611-7.437,15.865-12.627,22.24
			c-7.464,9.168-11.929,20.23-12.911,31.99c-0.999,11.949,1.662,23.736,7.697,34.086l55.335,94.912
			c5.103,8.752,12.382,16.049,21.052,21.104c8.585,5.006,18.372,7.721,28.302,7.855c12.284,0.164,24.141-3.52,34.286-10.654
			c14.469-10.174,27.816-21.996,39.674-35.135c11.709-12.977,22.012-27.287,30.619-42.537c8.604-15.236,15.543-31.465,20.633-48.23
			c5.145-16.953,8.412-34.527,9.717-52.234C607.396,372.88,601.885,357.015,591.105,345.257z M563.5,385.64
			c-4.332,58.855-34.627,112.529-82.561,146.238c-2.815,1.979-5.976,2.9-9.067,2.859c-5.118-0.068-10.05-2.777-12.919-7.697
			l-55.335-94.914c-3.231-5.543-2.621-12.48,1.429-17.455c10.951-13.451,17.981-30.277,19.878-35.115
			c0.263-0.67,0.493-1.35,0.643-2.055c1.02-4.814,5.229-8.336,10.212-8.332l112.465,0.066c0.066,0,0.135,0.002,0.201,0.002
			C557.23,369.356,564.148,376.851,563.5,385.64z"/>
		<path d="M472.083,578.08C472.083,578.08,472.083,578.08,472.083,578.08c-0.265,0-0.53-0.001-0.794-0.005
			c-10.019-0.136-19.891-2.876-28.547-7.924c-8.744-5.098-16.086-12.458-21.231-21.283l-55.335-94.912
			c-6.087-10.438-8.771-22.326-7.764-34.38c0.99-11.86,5.493-23.018,13.021-32.264c5.112-6.28,9.837-15.542,12.553-22.116
			c2.93-10.53,9.216-20.192,17.682-27.15c9.586-7.878,21.697-12.217,34.103-12.217l113.255,0.072
			c16.098,0.217,31.568,7.148,42.448,19.018c10.873,11.86,16.432,27.861,15.25,43.902c-1.309,17.75-4.584,35.361-9.737,52.343
			c-5.104,16.812-12.061,33.074-20.676,48.331c-8.622,15.276-18.946,29.617-30.684,42.626
			c-11.887,13.171-25.263,25.017-39.757,35.209C495.869,574.363,484.186,578.08,472.083,578.08z M435.804,326.829
			c-12.208,0-24.094,4.258-33.501,11.99c-8.309,6.828-14.478,16.312-17.373,26.702c-2.763,6.696-7.54,16.059-12.721,22.422
			c-7.4,9.09-11.826,20.058-12.801,31.717c-0.99,11.848,1.648,23.532,7.631,33.792l55.335,94.912
			c5.059,8.677,12.276,15.912,20.872,20.924c8.508,4.961,18.21,7.653,28.057,7.787c12.187,0.188,23.945-3.499,33.991-10.563
			c14.435-10.149,27.754-21.945,39.591-35.061c11.688-12.954,21.969-27.235,30.555-42.448c8.579-15.193,15.507-31.387,20.59-48.13
			c5.132-16.91,8.395-34.448,9.696-52.126c1.162-15.767-4.301-31.495-14.988-43.152c-10.695-11.667-25.902-18.48-41.723-18.693
			l-0.745-0.004L435.804,326.829z M472.069,535.238l-0.204-0.001c-5.497-0.073-10.485-3.044-13.344-7.945l-55.335-94.914
			c-3.295-5.651-2.703-12.894,1.473-18.022c10.893-13.38,17.909-30.158,19.8-34.982c0.298-0.758,0.494-1.386,0.619-1.976
			c1.071-5.058,5.568-8.729,10.693-8.729h0.008l112.673,0.068c4.402,0.06,8.467,1.882,11.444,5.131
			c2.968,3.239,4.425,7.433,4.103,11.809c-4.361,59.247-34.53,112.685-82.771,146.61
			C478.479,534.218,475.312,535.238,472.069,535.238z M435.771,369.169v0.5c-4.655,0-8.741,3.337-9.715,7.936
			c-0.137,0.646-0.349,1.323-0.666,2.134c-1.904,4.857-8.972,21.756-19.956,35.248c-3.914,4.808-4.471,11.595-1.385,16.888
			l55.335,94.914c2.681,4.596,7.351,7.381,12.494,7.449l0.19,0.001c3.036,0,6.004-0.957,8.583-2.77
			c47.995-33.752,78.01-86.918,82.349-145.866c0.303-4.098-1.062-8.024-3.842-11.059c-2.789-3.044-6.597-4.751-10.721-4.807
			l-0.101-0.001l-112.559-0.067L435.771,369.169z"/>
	</g>
	<g>
		<path d="M431.321,135.944c8.185-13.869,10.25-30.677,5.666-46.115c-4.582-15.427-15.476-28.374-29.888-35.521
			c-16.625-8.243-34.199-14.556-52.235-18.764c-17.836-4.161-36.151-6.271-54.438-6.272c-16.72,0-33.471,1.767-49.789,5.252
			c-16.523,3.529-32.706,8.842-48.1,15.792c-14.857,6.708-26.282,19.356-31.345,34.701c-5.071,15.364-3.413,32.354,4.548,46.614
			l53.556,95.93c10.256,18.371,29.73,29.784,50.823,29.784c2.907,0,5.84-0.22,8.718-0.653c2.907-0.438,6.293-0.66,10.064-0.66
			c0,0,0,0,0.001,0c6.63,0,12.509,0.686,15.506,1.108c4.518,1.216,9.172,1.832,13.872,1.832c9.089,0,18.084-2.341,26.011-6.769
			c8.213-4.588,15.083-11.298,19.867-19.406L431.321,135.944z M337.265,211.023c-1.928,3.267-5.387,5.109-8.984,5.109
			c-1.129,0-2.271-0.181-3.384-0.557c-0.683-0.229-1.386-0.378-2.096-0.493c-3.474-0.561-12.87-1.892-23.9-1.891
			c-5.265,0-10.902,0.304-16.443,1.138c-0.782,0.118-1.563,0.176-2.337,0.176c-5.508,0-10.675-2.915-13.417-7.826l-53.556-95.929
			c-4.453-7.977-1.306-17.628,7.021-21.389c25.499-11.513,52.861-17.25,80.257-17.249c29.988,0.001,60.014,6.877,87.644,20.577
			c7.956,3.945,10.872,13.832,6.358,21.479L337.265,211.023z"/>
		<path d="M328.28,259.473c-4.733,0-9.444-0.622-14.002-1.849c-2.861-0.4-8.75-1.091-15.376-1.091c-3.745,0-7.106,0.22-9.991,0.654
			c-2.901,0.437-5.859,0.659-8.792,0.659c-21.273,0-40.915-11.511-51.259-30.04l-53.556-95.93
			c-8.029-14.382-9.701-31.518-4.586-47.015c5.107-15.478,16.63-28.235,31.614-35c15.424-6.965,31.642-12.29,48.201-15.826
			c34.244-7.314,70.244-6.958,104.445,1.022c18.073,4.216,35.685,10.542,52.344,18.803c14.536,7.208,25.523,20.266,30.146,35.826
			c4.623,15.571,2.54,32.524-5.715,46.512l-57.163,96.854c-4.829,8.184-11.764,14.958-20.054,19.589
			C346.533,257.11,337.455,259.473,328.28,259.473z M298.901,255.533c6.688,0,12.63,0.697,15.577,1.113
			c13.319,3.574,27.664,1.771,39.568-4.879c8.137-4.545,14.941-11.192,19.681-19.224l57.163-96.854
			c8.114-13.75,10.162-30.414,5.617-45.719c-4.542-15.294-15.343-28.13-29.63-35.215c-16.591-8.226-34.129-14.525-52.127-18.725
			c-34.074-7.949-69.924-8.298-104.009-1.018c-16.49,3.522-32.639,8.824-47.999,15.759c-14.729,6.65-26.056,19.189-31.076,34.402
			c-5.027,15.231-3.383,32.076,4.51,46.214l53.556,95.93c10.168,18.213,29.475,29.527,50.386,29.527
			c2.883,0,5.791-0.218,8.643-0.648C291.696,255.756,295.107,255.533,298.901,255.533z M328.28,216.632
			c-1.205,0-2.396-0.196-3.544-0.583c-0.574-0.193-1.215-0.343-2.016-0.473c-3.508-0.567-12.853-1.885-23.813-1.885v-0.5l-0.006,0.5
			c-5.871,0-11.378,0.381-16.369,1.132c-0.8,0.12-1.611,0.181-2.412,0.181c-5.761,0-11.07-3.097-13.854-8.083l-53.556-95.929
			c-2.23-3.995-2.696-8.508-1.31-12.707c1.379-4.179,4.419-7.511,8.562-9.381c25.414-11.475,52.482-17.293,80.452-17.293
			c30.279,0.001,60.662,7.135,87.876,20.629c3.967,1.966,6.846,5.39,8.107,9.64c1.247,4.199,0.686,8.771-1.54,12.542l-57.163,96.854
			C335.746,214.58,332.139,216.632,328.28,216.632z M298.901,212.692h0.006c11.034,0,20.44,1.327,23.974,1.897
			c0.855,0.138,1.547,0.301,2.175,0.512c1.044,0.352,2.129,0.531,3.225,0.531c3.506,0,6.784-1.864,8.554-4.863l57.163-96.854
			c2.116-3.585,2.629-7.758,1.443-11.749c-1.182-3.98-3.879-7.187-7.593-9.029c-27.078-13.426-57.308-20.523-87.422-20.524
			c-27.838,0-54.768,5.789-80.052,17.204c-3.884,1.754-6.733,4.874-8.023,8.784c-1.297,3.93-0.859,8.158,1.233,11.906l53.556,95.929
			c2.607,4.669,7.582,7.57,12.981,7.57c0.751,0,1.512-0.057,2.263-0.17C287.423,213.077,292.981,212.692,298.901,212.692z"/>
	</g>
	<g>
		<path d="M302.809,268.752c-37.898,0-68.621,30.723-68.621,68.62c0,37.898,30.722,68.621,68.621,68.621
			c37.897,0,68.62-30.723,68.62-68.621C371.429,299.476,340.707,268.752,302.809,268.752z M302.809,363.153
			c-14.216,0-25.781-11.564-25.781-25.779c0-14.217,11.565-25.781,25.781-25.781c14.215,0,25.78,11.564,25.78,25.781
			C328.589,351.589,317.024,363.153,302.809,363.153z"/>
		<path d="M302.809,406.493c-38.113,0-69.121-31.008-69.121-69.121c0-38.113,31.007-69.12,69.121-69.12
			c38.113,0,69.12,31.007,69.12,69.12C371.929,375.485,340.922,406.493,302.809,406.493z M302.809,269.252
			c-37.562,0-68.121,30.558-68.121,68.12c0,37.562,30.559,68.121,68.121,68.121c37.561,0,68.12-30.559,68.12-68.121
			C370.929,299.811,340.37,269.252,302.809,269.252z M302.809,363.653c-14.491,0-26.281-11.789-26.281-26.279
			c0-14.491,11.79-26.281,26.281-26.281c14.491,0,26.28,11.79,26.28,26.281C329.089,351.864,317.3,363.653,302.809,363.653z
			 M302.809,312.093c-13.94,0-25.281,11.341-25.281,25.281c0,13.939,11.341,25.279,25.281,25.279c13.939,0,25.28-11.34,25.28-25.279
			C328.089,323.434,316.748,312.093,302.809,312.093z"/>
	</g>
</g>
<g>
</g>
<g>
</g>
<g>
</g>
<g>
</g>
<g>
</g>
<g>
</g>
<g>
</g>
<g>
</g>
<g>
</g>
<g>
</g>
<g>
</g>
<g>
</g>
<g>
</g>
<g>
</g>
<g>
</g>
</svg>
